<?xml version="1.0" encoding="utf-8"?>
<!-- Generator: Adobe Illustrator 27.1.1, SVG Export Plug-In . SVG Version: 6.00 Build 0)  -->
<svg version="1.1" id="Capa_1" xmlns="http://www.w3.org/2000/svg" xmlns:xlink="http://www.w3.org/1999/xlink" x="0px" y="0px"
	 viewBox="0 0 1080 1080" style="enable-background:new 0 0 1080 1080;" xml:space="preserve">
<style type="text/css">
	.st0{fill:#F8B133;}
	.st1{fill:#FFFFFF;}
</style>
<g>
	<path class="st0" d="M435.76,188.84l-290.97,74.49c-11.11,2.85-20.12,18.4-20.12,34.74v478.85c0,16.34,9.01,31.21,20.12,33.2
		l290.97,52.23c11.11,2,20.12-13.19,20.12-33.91V221.21C455.88,200.49,446.87,185.99,435.76,188.84z M425.89,775.58
		c0,16.83-7.46,29.4-16.66,28.07l-237.9-34.26c-9.2-1.33-16.66-13.63-16.66-27.49V330.8c0-13.86,7.46-26.74,16.66-28.76l237.9-52.46
		c9.2-2.03,16.66,9.97,16.66,26.79V775.58z"/>
	<g>
		<g>
			<path class="st1" d="M564.14,359.42l-20.74,23.08v44.06h-54.58V242.7h54.58v70.82l61.68-70.82h62.98l-66.66,74.76l70.86,109.11
				h-65.35L564.14,359.42z"/>
			<path class="st1" d="M743.15,243.23c0,16-11.28,27.28-27.29,27.28s-27.29-11.28-27.29-27.28s11.28-27.28,27.29-27.28
				S743.15,227.22,743.15,243.23z M689.09,426.57V283.88h53.01v142.69H689.09z"/>
			<path class="st1" d="M921.88,355.22c0,44.07-31.23,73.18-79.26,73.18c-48.03,0-79.52-29.11-79.52-73.18
				c0-44.33,31.49-73.18,79.52-73.18C890.65,282.05,921.88,310.9,921.88,355.22z M816.64,355.75c0,19.15,10.23,31.74,25.98,31.74
				c15.48,0,25.72-12.59,25.72-31.74c0-18.88-10.24-31.74-25.72-31.74C826.87,324.02,816.64,336.87,816.64,355.75z"/>
			<path class="st1" d="M1061,298.83l-17.59,33.31c-19.42-9.97-35.42-14.95-46.71-14.95c-6.56,0-10.76,2.36-10.76,6.82
				c0,16,74.54,8.92,74.54,57.7c0,29.38-25.46,47.21-62.72,47.21c-25.19,0-48.55-6.82-67.18-20.2l16.27-33.31
				c17.85,11.54,35.96,17.57,51.7,17.57c7.09,0,11.81-2.1,11.81-6.56c0-16.26-72.96-8.39-72.96-57.18
				c0-29.9,24.93-47.74,60.89-47.74C1019.8,281.52,1041.58,287.55,1061,298.83z"/>
			<path class="st1" d="M564.14,561.58l-20.74,23.08v44.07h-54.58V444.85h54.58v70.82l61.68-70.82h62.98l-66.66,74.76l70.86,109.12
				h-65.35L564.14,561.58z"/>
			<path class="st1" d="M836.83,557.38c0,44.06-31.23,73.18-79.25,73.18c-48.03,0-79.52-29.11-79.52-73.18
				c0-44.33,31.49-73.18,79.52-73.18C805.61,484.2,836.83,513.05,836.83,557.38z M731.61,557.91c0,19.15,10.23,31.74,25.98,31.74
				c15.48,0,25.72-12.59,25.72-31.74c0-18.88-10.24-31.74-25.72-31.74C741.83,526.17,731.61,539.02,731.61,557.91z"/>
			<path class="st0" d="M572.27,647.01c47.51,0,74.8,23.61,74.8,65.32c0,43.8-27.29,68.98-74.8,68.98H543.4v49.58h-54.58V647.01
				H572.27z M543.4,739.34h26.25c16.27,0,25.72-8.92,25.72-25.44c0-16-9.45-24.92-25.72-24.92H543.4V739.34z"/>
			<path class="st0" d="M799.83,738.29v92.59h-51.97v-15.73c-8.66,11.54-22.83,18.1-41.72,18.1c-30.44,0-48.29-18.1-48.29-44.85
				c0-27.54,19.16-42.76,55.11-43.27h34.9v-0.53c0-11.81-8.4-18.88-24.67-18.88c-11.28,0-27.29,3.41-43.03,10.23l-13.13-35.14
				c23.36-9.45,46.45-14.69,68.76-14.69C775.95,686.1,799.83,705.24,799.83,738.29z M747.87,783.93v-12.85h-24.14
				c-10.5,0-16.01,4.46-16.01,13.38s5.77,14.16,16.01,14.16C734.49,798.62,743.93,792.85,747.87,783.93z"/>
			<path class="st0" d="M912.18,842.95c-11.28,28.07-30.7,41.19-59.3,41.19c-17.59,0-31.76-4.99-45.92-15.74L829,832.98
				c6.56,5.77,12.07,8.13,19.15,8.13s12.33-2.88,15.48-9.17l2.62-4.99L807.21,688.2h54.32l31.23,87.34l26.51-87.34h52.75
				L912.18,842.95z"/>
		</g>
	</g>
	<path class="st1" d="M267.6,293.24c-132.34,0-239.41,108.2-237.57,240.96c1.74,125.43,102.22,228.87,227.56,234.02
		c36.56,1.5,71.36-5.28,102.73-18.59V312.09C331.81,299.99,300.5,293.24,267.6,293.24z M348.37,622.85
		c-5.32,10.79-12.54,19.78-21.64,27c-9.1,7.21-19.75,12.64-31.93,16.28c-3.13,0.93-6.32,1.75-9.55,2.44v30.29
		c0,11.75-9.52,21.27-21.27,21.27c-11.75,0-21.27-9.52-21.27-21.27v-27.8c0,0,0.02,0,0.04,0c-4.57-0.39-8.97-0.97-13.17-1.78
		c-8.05-1.54-15.16-3.39-21.32-5.57c-6.17-2.17-11.31-4.44-15.44-6.83c-4.13-2.38-7.11-4.48-8.93-6.3
		c-1.82-1.82-3.12-4.45-3.89-7.88c-0.77-3.43-1.16-8.37-1.16-14.81c0-4.34,0.14-7.98,0.42-10.92c0.28-2.94,0.74-5.32,1.37-7.14
		c0.63-1.82,1.47-3.12,2.52-3.89c1.05-0.77,2.27-1.16,3.68-1.16c1.96,0,4.73,1.16,8.3,3.47s8.16,4.87,13.76,7.67
		c5.6,2.8,12.29,5.36,20.06,7.67c7.77,2.31,16.77,3.47,27,3.47c6.72,0,12.74-0.81,18.07-2.42c5.32-1.61,9.84-3.89,13.55-6.83
		c3.71-2.94,6.55-6.58,8.51-10.92c1.96-4.34,2.94-9.17,2.94-14.5c0-6.16-1.68-11.45-5.04-15.86c-3.36-4.41-7.74-8.33-13.13-11.76
		c-5.39-3.43-11.52-6.65-18.38-9.66c-6.86-3.01-13.94-6.2-21.22-9.56c-7.28-3.36-14.36-7.18-21.22-11.45
		c-6.86-4.27-12.99-9.38-18.38-15.34c-5.39-5.95-9.77-12.99-13.13-21.11c-3.36-8.12-5.04-17.86-5.04-29.2
		c0-13.03,2.42-24.47,7.25-34.35c4.83-9.87,11.34-18.07,19.54-24.58c8.19-6.51,17.86-11.38,28.99-14.6
		c1.15-0.33,2.31-0.64,3.47-0.94v-31.16c0-11.75,9.52-21.27,21.27-21.27s21.27,9.52,21.27,21.27v27.72c2.9,0.24,5.81,0.58,8.71,1.02
		c6.44,0.98,12.46,2.31,18.07,3.99c5.6,1.68,10.57,3.57,14.92,5.67c4.34,2.1,7.21,3.85,8.61,5.25c1.4,1.4,2.34,2.59,2.84,3.57
		c0.49,0.98,0.91,2.28,1.26,3.89c0.35,1.61,0.59,3.64,0.74,6.09c0.14,2.45,0.21,5.5,0.21,9.14c0,4.06-0.11,7.49-0.32,10.29
		c-0.21,2.8-0.56,5.11-1.05,6.93c-0.49,1.82-1.19,3.15-2.1,3.99c-0.91,0.84-2.14,1.26-3.68,1.26c-1.54,0-3.99-0.98-7.35-2.94
		c-3.36-1.96-7.49-4.1-12.39-6.41c-4.9-2.31-10.58-4.41-17.02-6.3c-6.44-1.89-13.52-2.84-21.22-2.84c-6.02,0-11.28,0.73-15.76,2.21
		c-4.48,1.47-8.23,3.5-11.24,6.09c-3.01,2.59-5.25,5.71-6.72,9.35c-1.47,3.64-2.21,7.49-2.21,11.56c0,6.02,1.64,11.24,4.94,15.65
		c3.29,4.41,7.7,8.34,13.23,11.76c5.53,3.43,11.8,6.65,18.8,9.66c7,3.01,14.14,6.2,21.43,9.56c7.28,3.36,14.42,7.18,21.43,11.45
		c7,4.27,13.23,9.39,18.7,15.34c5.46,5.95,9.87,12.96,13.23,21.01c3.36,8.06,5.04,17.54,5.04,28.47
		C356.35,599.53,353.69,612.07,348.37,622.85z"/>
</g>
</svg>
